<svg id="svg" version="1.1" width="400" height="400" viewBox="0 0 400 400" xmlns="http://www.w3.org/2000/svg" xmlns:xlink="http://www.w3.org/1999/xlink" ><g id="svgg"><path id="path0" d="M64.600 0.641 C 51.289 3.592,42.998 9.264,23.899 28.483 C 2.908 49.605,0.533 54.409,0.099 76.600 C -1.650 166.129,107.073 307.534,226.781 371.423 C 281.147 400.438,333.167 408.318,355.908 390.982 C 361.133 386.999,381.768 366.381,386.916 360.000 C 409.103 332.498,403.272 304.909,369.669 278.400 C 334.088 250.330,310.176 245.078,288.600 260.593 C 284.002 263.900,281.227 266.382,272.000 275.437 C 262.653 284.611,262.625 284.628,257.237 284.285 C 241.270 283.270,211.848 261.621,172.776 222.136 C 138.921 187.924,120.376 163.086,116.381 146.600 C 114.469 138.711,114.879 137.788,124.695 127.843 C 137.773 114.594,141.995 109.067,145.250 100.939 C 152.898 81.839,144.359 57.624,119.388 27.600 C 101.435 6.013,82.467 -3.320,64.600 0.641 M81.383 15.235 C 91.841 18.703,102.273 27.811,114.824 44.432 C 130.926 65.755,136.562 81.123,132.783 93.400 C 130.568 100.597,127.103 105.299,114.780 117.829 C 102.709 130.103,101.588 132.119,101.609 141.520 C 101.656 162.522,126.602 197.585,173.677 242.812 C 215.025 282.538,241.696 299.523,260.783 298.286 C 268.500 297.786,270.833 296.353,282.400 285.003 C 301.609 266.154,309.836 262.936,325.800 268.027 C 340.845 272.825,367.384 292.176,377.771 305.920 C 392.631 325.584,389.100 339.201,362.257 365.745 C 343.004 384.783,337.930 387.147,318.259 386.240 C 233.203 382.318,103.830 280.949,43.003 170.567 C 15.317 120.325,5.983 71.187,20.518 52.200 C 23.629 48.136,43.881 27.948,48.458 24.349 C 61.127 14.384,70.768 11.715,81.383 15.235 " stroke="none" fill="#000000" fill-rule="evenodd"></path><path id="path1" d="M64.600 0.641 C 51.289 3.592,42.998 9.264,23.899 28.483 C 2.908 49.605,0.533 54.409,0.099 76.600 C -1.650 166.129,107.073 307.534,226.781 371.423 C 281.147 400.438,333.167 408.318,355.908 390.982 C 361.133 386.999,381.768 366.381,386.916 360.000 C 409.103 332.498,403.272 304.909,369.669 278.400 C 334.088 250.330,310.176 245.078,288.600 260.593 C 284.002 263.900,281.227 266.382,272.000 275.437 C 262.653 284.611,262.625 284.628,257.237 284.285 C 241.270 283.270,211.848 261.621,172.776 222.136 C 138.921 187.924,120.376 163.086,116.381 146.600 C 114.469 138.711,114.879 137.788,124.695 127.843 C 137.773 114.594,141.995 109.067,145.250 100.939 C 152.898 81.839,144.359 57.624,119.388 27.600 C 101.435 6.013,82.467 -3.320,64.600 0.641 M81.383 15.235 C 91.841 18.703,102.273 27.811,114.824 44.432 C 130.926 65.755,136.562 81.123,132.783 93.400 C 130.568 100.597,127.103 105.299,114.780 117.829 C 102.709 130.103,101.588 132.119,101.609 141.520 C 101.656 162.522,126.602 197.585,173.677 242.812 C 215.025 282.538,241.696 299.523,260.783 298.286 C 268.500 297.786,270.833 296.353,282.400 285.003 C 301.609 266.154,309.836 262.936,325.800 268.027 C 340.845 272.825,367.384 292.176,377.771 305.920 C 392.631 325.584,389.100 339.201,362.257 365.745 C 343.004 384.783,337.930 387.147,318.259 386.240 C 233.203 382.318,103.830 280.949,43.003 170.567 C 15.317 120.325,5.983 71.187,20.518 52.200 C 23.629 48.136,43.881 27.948,48.458 24.349 C 61.127 14.384,70.768 11.715,81.383 15.235 " stroke="none" fill="#000000" fill-rule="evenodd"></path><path id="path2" d="M64.600 0.641 C 51.289 3.592,42.998 9.264,23.899 28.483 C 2.908 49.605,0.533 54.409,0.099 76.600 C -1.650 166.129,107.073 307.534,226.781 371.423 C 281.147 400.438,333.167 408.318,355.908 390.982 C 361.133 386.999,381.768 366.381,386.916 360.000 C 409.103 332.498,403.272 304.909,369.669 278.400 C 334.088 250.330,310.176 245.078,288.600 260.593 C 284.002 263.900,281.227 266.382,272.000 275.437 C 262.653 284.611,262.625 284.628,257.237 284.285 C 241.270 283.270,211.848 261.621,172.776 222.136 C 138.921 187.924,120.376 163.086,116.381 146.600 C 114.469 138.711,114.879 137.788,124.695 127.843 C 137.773 114.594,141.995 109.067,145.250 100.939 C 152.898 81.839,144.359 57.624,119.388 27.600 C 101.435 6.013,82.467 -3.320,64.600 0.641 M81.383 15.235 C 91.841 18.703,102.273 27.811,114.824 44.432 C 130.926 65.755,136.562 81.123,132.783 93.400 C 130.568 100.597,127.103 105.299,114.780 117.829 C 102.709 130.103,101.588 132.119,101.609 141.520 C 101.656 162.522,126.602 197.585,173.677 242.812 C 215.025 282.538,241.696 299.523,260.783 298.286 C 268.500 297.786,270.833 296.353,282.400 285.003 C 301.609 266.154,309.836 262.936,325.800 268.027 C 340.845 272.825,367.384 292.176,377.771 305.920 C 392.631 325.584,389.100 339.201,362.257 365.745 C 343.004 384.783,337.930 387.147,318.259 386.240 C 233.203 382.318,103.830 280.949,43.003 170.567 C 15.317 120.325,5.983 71.187,20.518 52.200 C 23.629 48.136,43.881 27.948,48.458 24.349 C 61.127 14.384,70.768 11.715,81.383 15.235 " stroke="none" fill="#000000" fill-rule="evenodd"></path><path id="path3" d="M64.600 0.641 C 51.289 3.592,42.998 9.264,23.899 28.483 C 2.908 49.605,0.533 54.409,0.099 76.600 C -1.650 166.129,107.073 307.534,226.781 371.423 C 281.147 400.438,333.167 408.318,355.908 390.982 C 361.133 386.999,381.768 366.381,386.916 360.000 C 409.103 332.498,403.272 304.909,369.669 278.400 C 334.088 250.330,310.176 245.078,288.600 260.593 C 284.002 263.900,281.227 266.382,272.000 275.437 C 262.653 284.611,262.625 284.628,257.237 284.285 C 241.270 283.270,211.848 261.621,172.776 222.136 C 138.921 187.924,120.376 163.086,116.381 146.600 C 114.469 138.711,114.879 137.788,124.695 127.843 C 137.773 114.594,141.995 109.067,145.250 100.939 C 152.898 81.839,144.359 57.624,119.388 27.600 C 101.435 6.013,82.467 -3.320,64.600 0.641 M81.383 15.235 C 91.841 18.703,102.273 27.811,114.824 44.432 C 130.926 65.755,136.562 81.123,132.783 93.400 C 130.568 100.597,127.103 105.299,114.780 117.829 C 102.709 130.103,101.588 132.119,101.609 141.520 C 101.656 162.522,126.602 197.585,173.677 242.812 C 215.025 282.538,241.696 299.523,260.783 298.286 C 268.500 297.786,270.833 296.353,282.400 285.003 C 301.609 266.154,309.836 262.936,325.800 268.027 C 340.845 272.825,367.384 292.176,377.771 305.920 C 392.631 325.584,389.100 339.201,362.257 365.745 C 343.004 384.783,337.930 387.147,318.259 386.240 C 233.203 382.318,103.830 280.949,43.003 170.567 C 15.317 120.325,5.983 71.187,20.518 52.200 C 23.629 48.136,43.881 27.948,48.458 24.349 C 61.127 14.384,70.768 11.715,81.383 15.235 " stroke="none" fill="#000000" fill-rule="evenodd"></path><path id="path4" d="M64.600 0.641 C 51.289 3.592,42.998 9.264,23.899 28.483 C 2.908 49.605,0.533 54.409,0.099 76.600 C -1.650 166.129,107.073 307.534,226.781 371.423 C 281.147 400.438,333.167 408.318,355.908 390.982 C 361.133 386.999,381.768 366.381,386.916 360.000 C 409.103 332.498,403.272 304.909,369.669 278.400 C 334.088 250.330,310.176 245.078,288.600 260.593 C 284.002 263.900,281.227 266.382,272.000 275.437 C 262.653 284.611,262.625 284.628,257.237 284.285 C 241.270 283.270,211.848 261.621,172.776 222.136 C 138.921 187.924,120.376 163.086,116.381 146.600 C 114.469 138.711,114.879 137.788,124.695 127.843 C 137.773 114.594,141.995 109.067,145.250 100.939 C 152.898 81.839,144.359 57.624,119.388 27.600 C 101.435 6.013,82.467 -3.320,64.600 0.641 M81.383 15.235 C 91.841 18.703,102.273 27.811,114.824 44.432 C 130.926 65.755,136.562 81.123,132.783 93.400 C 130.568 100.597,127.103 105.299,114.780 117.829 C 102.709 130.103,101.588 132.119,101.609 141.520 C 101.656 162.522,126.602 197.585,173.677 242.812 C 215.025 282.538,241.696 299.523,260.783 298.286 C 268.500 297.786,270.833 296.353,282.400 285.003 C 301.609 266.154,309.836 262.936,325.800 268.027 C 340.845 272.825,367.384 292.176,377.771 305.920 C 392.631 325.584,389.100 339.201,362.257 365.745 C 343.004 384.783,337.930 387.147,318.259 386.240 C 233.203 382.318,103.830 280.949,43.003 170.567 C 15.317 120.325,5.983 71.187,20.518 52.200 C 23.629 48.136,43.881 27.948,48.458 24.349 C 61.127 14.384,70.768 11.715,81.383 15.235 " stroke="none" fill="#212121" fill-rule="evenodd"></path></g></svg>